<svg width="22" height="22" viewBox="0 0 22 22" fill="none" xmlns="http://www.w3.org/2000/svg">
<path d="M21 11C21 16.5134 16.5134 21 11 21C5.48657 21 1 16.5134 1 11C1 5.48657 5.48657 1 11 1C16.5134 1 21 5.48657 21 11ZM2.50079 11C2.50079 15.7038 6.29621 19.4992 11 19.4992C15.7038 19.4992 19.4992 15.7038 19.4992 11C19.4992 6.29621 15.7038 2.50079 11 2.50079C6.29621 2.50079 2.50079 6.29621 2.50079 11Z" fill="white" stroke="white" stroke-width="0.276" stroke-miterlimit="10" stroke-linejoin="round"/>
<path d="M11.6715 16.6715C11.4611 16.8818 11.1758 17 10.8783 17C10.5808 17 10.2955 16.8818 10.0851 16.6715C9.87475 16.4611 9.75657 16.1758 9.75657 15.8783C9.75657 15.5808 9.87475 15.2955 10.0851 15.0851C10.2955 14.8747 10.5808 14.7566 10.8783 14.7566C11.1758 14.7566 11.4611 14.8747 11.6715 15.0851C11.8818 15.2955 12 15.5808 12 15.8783C12 16.1758 11.8818 16.4611 11.6715 16.6715Z" fill="white"/>
<path d="M11.4821 12.8307C11.3268 12.9907 11.1144 13.0826 10.8914 13.086C10.7788 13.0878 10.667 13.0669 10.5626 13.0247C10.4582 12.9824 10.3634 12.9197 10.2837 12.8401C10.204 12.7605 10.1412 12.6658 10.0988 12.5614C10.0564 12.4571 10.0354 12.3453 10.037 12.2327L10.037 6.06327C10.0354 5.95179 10.056 5.84111 10.0976 5.73765C10.1392 5.6342 10.2009 5.54005 10.2792 5.46066C10.3574 5.38126 10.4507 5.31822 10.5536 5.27519C10.6564 5.23216 10.7668 5.21 10.8783 5.21C10.9898 5.21 11.1002 5.23216 11.203 5.27519C11.3059 5.31822 11.3991 5.38126 11.4774 5.46066C11.5557 5.54005 11.6174 5.6342 11.659 5.73765C11.7006 5.84111 11.7211 5.95179 11.7196 6.06327L11.7196 12.2327C11.7228 12.4556 11.6373 12.6707 11.4821 12.8307Z" fill="white"/>
</svg>
