<svg width="22" height="22" viewBox="0 0 22 22" fill="none" xmlns="http://www.w3.org/2000/svg">
<path d="M21 11C21 16.5134 16.5134 21 11 21C5.48657 21 1 16.5134 1 11C1 5.48657 5.48657 1 11 1C16.5134 1 21 5.48657 21 11ZM2.50079 11C2.50079 15.7038 6.29621 19.4992 11 19.4992C15.7038 19.4992 19.4992 15.7038 19.4992 11C19.4992 6.29621 15.7038 2.50079 11 2.50079C6.29621 2.50079 2.50079 6.29621 2.50079 11ZM15.4471 8.45261C15.5695 8.73697 15.5024 9.06477 15.2812 9.28199L10.2812 14.282C9.98894 14.5742 9.51106 14.5742 9.2188 14.282L6.7188 11.782C6.52528 11.5924 6.44629 11.312 6.51343 11.0513C6.58057 10.7867 6.78594 10.5814 7.05055 10.5142C7.31122 10.4431 7.59163 10.5221 7.7812 10.7196L9.75197 12.6904L14.2188 8.21959C14.357 8.08136 14.5387 7.99842 14.7362 7.99447C15.0442 7.98262 15.3286 8.1643 15.4471 8.45261Z" fill="white" stroke="white" stroke-width="0.276" stroke-miterlimit="10" stroke-linejoin="round"/>
<path d="M11 1C5.48657 1 1 5.48657 1 11C1 16.5134 5.48657 21 11 21C16.5134 21 21 16.5134 21 11C21 5.48657 16.5134 1 11 1ZM11 2.50079C15.7038 2.50079 19.4992 6.29621 19.4992 11C19.4992 15.7038 15.7038 19.4992 11 19.4992C6.29621 19.4992 2.50079 15.7038 2.50079 11C2.50079 6.29621 6.29621 2.50079 11 2.50079ZM14.7362 7.99447C14.5387 7.99842 14.357 8.08136 14.2188 8.21959L9.75197 12.6904L7.7812 10.7196C7.59163 10.5221 7.31122 10.4431 7.05055 10.5142C6.78594 10.5814 6.58057 10.7867 6.51343 11.0513C6.44629 11.312 6.52528 11.5924 6.7188 11.782L9.2188 14.282C9.51106 14.5742 9.98894 14.5742 10.2812 14.282L15.2812 9.28199C15.5024 9.06477 15.5695 8.73697 15.4471 8.45261C15.3286 8.1643 15.0442 7.98262 14.7362 7.99447Z" fill="white"/>
</svg>
