<svg width="12" height="12" viewBox="0 0 12 12" fill="none" xmlns="http://www.w3.org/2000/svg">
<path fill-rule="evenodd" clip-rule="evenodd" d="M11.0803 1.98053C11.3732 1.68763 11.3732 1.21276 11.0803 0.919865C10.7874 0.626972 10.3126 0.626972 10.0197 0.919865L6.00001 4.93953L1.98034 0.919865C1.68745 0.626972 1.21258 0.626972 0.919682 0.919865C0.626789 1.21276 0.626789 1.68763 0.919682 1.98053L4.93935 6.00019L0.919682 10.0199C0.626789 10.3128 0.626789 10.7876 0.919682 11.0805C1.21258 11.3734 1.68745 11.3734 1.98034 11.0805L6.00001 7.06085L10.0197 11.0805C10.3126 11.3734 10.7874 11.3734 11.0803 11.0805C11.3732 10.7876 11.3732 10.3128 11.0803 10.0199L7.06067 6.00019L11.0803 1.98053Z" fill="white"/>
</svg>
