<svg width="20" height="20" viewBox="0 0 20 20" fill="none" xmlns="http://www.w3.org/2000/svg">
<path fill-rule="evenodd" clip-rule="evenodd" d="M17.0303 4.03033C17.3232 3.73744 17.3232 3.26256 17.0303 2.96967C16.7374 2.67678 16.2626 2.67678 15.9697 2.96967L10 8.93934L4.03033 2.96967C3.73744 2.67678 3.26256 2.67678 2.96967 2.96967C2.67678 3.26256 2.67678 3.73744 2.96967 4.03033L8.93934 10L2.96967 15.9697C2.67678 16.2626 2.67678 16.7374 2.96967 17.0303C3.26256 17.3232 3.73744 17.3232 4.03033 17.0303L10 11.0607L15.9697 17.0303C16.2626 17.3232 16.7374 17.3232 17.0303 17.0303C17.3232 16.7374 17.3232 16.2626 17.0303 15.9697L11.0607 10L17.0303 4.03033Z" fill="#3D3D3D"/>
</svg>
